<?xml version="1.0" encoding="UTF-8" standalone="no"?>
<!DOCTYPE svg PUBLIC "-//W3C//DTD SVG 1.1//EN" "http://www.w3.org/Graphics/SVG/1.1/DTD/svg11.dtd">
<svg width="100%" height="100%" viewBox="0 0 1794 800" version="1.1" xmlns="http://www.w3.org/2000/svg" xmlns:xlink="http://www.w3.org/1999/xlink" xml:space="preserve" xmlns:serif="http://www.serif.com/" style="fill-rule:evenodd;clip-rule:evenodd;stroke-linejoin:round;stroke-miterlimit:2;">
    <g transform="matrix(770.738,-69.9772,66.4793,732.211,59.9564,641.28)">
        <path d="M0.132,0L0.256,0L0.256,-0.614L0.376,-0.614L0.376,-0.722L0.012,-0.722L0.012,-0.614L0.132,-0.614L0.132,0Z" style="fill-rule:nonzero;"/>
    </g>
    <g transform="matrix(798.272,109.386,-109.386,798.272,364.784,654.234)">
        <path d="M0.221,-0.578L0.223,-0.578L0.272,-0.268L0.172,-0.268L0.221,-0.578ZM0.154,-0.16L0.29,-0.16L0.312,0L0.432,0L0.299,-0.722L0.145,-0.722L0.012,0L0.132,0L0.154,-0.16Z" style="fill-rule:nonzero;"/>
    </g>
    <g transform="matrix(597.489,0,0,567.371,1335.58,544.419)">
        <path d="M0.764,-0.378C0.764,-0.602 0.616,-0.774 0.391,-0.774C0.166,-0.774 0.018,-0.602 0.018,-0.378C0.018,-0.156 0.161,0.02 0.391,0.02C0.621,0.02 0.764,-0.156 0.764,-0.378ZM0.612,-0.384C0.612,-0.268 0.554,-0.125 0.391,-0.125C0.228,-0.125 0.17,-0.268 0.17,-0.384C0.17,-0.506 0.252,-0.629 0.391,-0.629C0.53,-0.629 0.612,-0.506 0.612,-0.384Z" style="fill-rule:nonzero;"/>
    </g>
    <g transform="matrix(742.991,-90.6404,90.6404,742.991,854.625,628.45)">
        <path d="M0.434,-0.481L0.434,-0.534C0.434,-0.642 0.374,-0.732 0.25,-0.732C0.12,-0.732 0.06,-0.649 0.06,-0.547L0.06,-0.175C0.06,-0.073 0.12,0.01 0.25,0.01C0.374,0.01 0.434,-0.073 0.434,-0.175L0.434,-0.258L0.31,-0.258L0.31,-0.171C0.31,-0.124 0.295,-0.098 0.25,-0.098C0.2,-0.098 0.184,-0.124 0.184,-0.178L0.184,-0.544C0.184,-0.598 0.2,-0.624 0.25,-0.624C0.282,-0.624 0.31,-0.598 0.31,-0.537L0.31,-0.481L0.434,-0.481Z" style="fill-rule:nonzero;"/>
    </g>
</svg>
